<?xml version="1.0" encoding="UTF-8"?>
<svg id="Laag_2" data-name="Laag 2" xmlns="http://www.w3.org/2000/svg" viewBox="0 0 87.16 87.16">
  <defs>
    <style>
      .cls-1 {
        fill: #f49e4c;
        stroke: #f49e4c;
      }

      .cls-1, .cls-2, .cls-3 {
        stroke-miterlimit: 10;
      }

      .cls-2 {
        stroke: #e9e8dd;
        stroke-width: 2px;
      }

      .cls-2, .cls-3 {
        fill: #2d728f;
      }

      .cls-3 {
        stroke: #2d728f;
      }
    </style>
  </defs>
  <g id="finalColor">
    <circle class="cls-2" cx="43.58" cy="43.58" r="42.58"/>
    <circle class="cls-3" cx="43.58" cy="43.58" r="42.58"/>
    <path class="cls-1" d="M26.87,60.19c-2.76-2.06-6.08-2.84-9.25-2.47t0,0c-3.19,2.08-6.19,3.76-8.87,5.13-4.27,5.74-3.08,13.85,2.66,18.13,5.74,4.27,13.85,3.08,18.13-2.66.54-2.96,1.29-6.32,2.37-9.97-.55-3.15-2.26-6.1-5.03-8.16ZM24.33,74.45c-2.14,2.87-6.19,3.47-9.06,1.33s-3.47-6.19-1.33-9.06c2.14-2.87,6.19-3.47,9.06-1.33,2.87,2.14,3.47,6.19,1.33,9.06Z"/>
    <path class="cls-1" d="M45.87,28.72c-2.47,4.03-5.68,8.58-9.85,13.23-6.44,7.2-13.04,12.28-18.4,15.77,4.76,3.54,9.51,7.09,14.27,10.63,1.8-6.14,4.77-13.92,9.82-22.17,3.26-5.32,6.7-9.71,9.85-13.23-1.9-1.41-3.79-2.82-5.69-4.23Z"/>
    <path class="cls-1" d="M48.72,30.83c-2.88-1.78-6.86-4.24-12.26-4.03-6.43.25-10.81,4.14-12.2,5.49.82-2.01,3.97-9.05,11.82-12.92,4.63-2.29,8.93-2.51,11.31-2.44-2.69-2.08-6.44-4.57-11.25-6.66-4.67-2.04-8.92-3.08-12.21-3.65,1.38-.81,8.39-4.71,16.92-2.32,5.64,1.58,9.08,5.1,10.45,6.69,2-1.34,6.65-4.05,13.14-4.32,8.43-.35,14.4,3.66,16.22,4.99-2.84-.51-8.23-1.08-14.41.96-3.52,1.16-6.22,2.82-8.07,4.19,1.3.03,8.2.35,13.36,6,6.57,7.2,4.39,16.59,4.2,17.35-.3-1.15-1.78-6.39-7.03-9.58-3.9-2.37-7.74-2.3-9.2-2.2.78.8,5.19,5.49,4.84,12.58-.26,5.43-3.16,9.06-4.14,10.18.03-2.58-.29-8.32-4.12-13.71-2.53-3.57-5.52-5.46-7.35-6.59Z"/>
    <path class="cls-1" d="M21.97,64.61l-7.73,10.39c-.31-.34-.57-.72-.79-1.11l7.23-9.71c.44.1.87.24,1.29.43Z"/>
    <path class="cls-1" d="M24.83,67.27l-7.23,9.71c-.44-.1-.87-.24-1.29-.43l7.73-10.39c.31.34.57.72.79,1.11Z"/>
  </g>
</svg>